<svg viewBox="0 0 14 14" fill="currentColor" xmlns="http://www.w3.org/2000/svg">
<g id="Group 2">
<rect id="Rectangle 6" x="2.14819" y="2" width="3" height="3" fill="currentColor"/>
<rect id="Rectangle 7" x="8.14819" y="2" width="3" height="3" fill="currentColor"/>
<path id="Ellipse 2" d="M13.8519 6.9999C13.8519 8.83677 13.1222 10.5984 11.8233 11.8973C10.5244 13.1961 8.7628 13.9258 6.92593 13.9258C5.08906 13.9258 3.32742 13.1961 2.02856 11.8973C0.729694 10.5984 2.7736e-07 8.83677 0 6.9999L2.77037 6.9999C2.77037 8.10202 3.20819 9.159 3.9875 9.93832C4.76682 10.7176 5.8238 11.1555 6.92593 11.1555C8.02805 11.1555 9.08503 10.7176 9.86435 9.93832C10.6437 9.159 11.0815 8.10202 11.0815 6.9999L13.8519 6.9999Z" fill="currentColor"/>
</g>
</svg>
