<svg width="30" height="30" viewBox="0 0 30 30" fill="none" xmlns="http://www.w3.org/2000/svg">
<g id="spotify 1" clip-path="url(#clip0_252_74)">
<path id="Vector" d="M14.9992 0.0495605C6.74046 0.0495605 0.045105 6.74474 0.045105 15.0035C0.045105 23.2626 6.74046 29.9572 14.9992 29.9572C23.2589 29.9572 29.9535 23.2626 29.9535 15.0035C29.9535 6.74527 23.2589 0.0502748 14.999 0.0502748L14.9992 0.0495605ZM21.8571 21.6174C21.5892 22.0567 21.0142 22.196 20.5749 21.9263C17.0639 19.7817 12.6439 19.296 7.4385 20.4853C6.93689 20.5996 6.43689 20.2853 6.32261 19.7835C6.20778 19.2817 6.52082 18.7817 7.02368 18.6674C12.7201 17.3655 17.6064 17.9263 21.5481 20.3353C21.9874 20.6049 22.1267 21.1781 21.8571 21.6174ZM23.6874 17.5451C23.3499 18.0942 22.6321 18.2674 22.0839 17.9299C18.0642 15.4587 11.9369 14.7431 7.18243 16.1863C6.56582 16.3726 5.91457 16.0251 5.72743 15.4096C5.54171 14.793 5.88939 14.143 6.50493 13.9555C11.9358 12.3076 18.6874 13.1058 23.3035 15.9424C23.8517 16.2799 24.0249 16.9976 23.6874 17.5451ZM23.8446 13.3051C19.0249 10.4424 11.0731 10.1792 6.47153 11.5758C5.73261 11.7999 4.95118 11.3828 4.72725 10.6438C4.50332 9.90456 4.9201 9.12367 5.65957 8.89902C10.9419 7.29545 19.7231 7.60527 25.2721 10.8994C25.9381 11.2938 26.156 12.1522 25.7614 12.816C25.3685 13.4806 24.5078 13.6997 23.8453 13.3051H23.8446Z" fill="black"/>
</g>
<defs>
<clipPath id="clip0_252_74">
<rect width="30" height="30" fill="white"/>
</clipPath>
</defs>
</svg>
